# xmcd
#
# Track frame offsets:
#       150
#       12262
#       25295
#       36425
#       47732
#       64272
#       74557
#       95507
#       110722
#       126695
#
# Disc length: 1894 seconds
#
# Revision: 1
# Processed by: cddbd v1.5.2PL0 Copyright (c) Steve Scherf et al.
# Submitted via: FreeDbEdit v0.1
#
DISCID=9907640a
DTITLE=Various Artist - A Country Christmas to Remember
DYEAR=1900
DGENRE=Country
TTITLE0=Merle Haggard - If We Make It Through December
TTITLE1=Tennessee Ernie Ford - O Come All Ye Faithful
TTITLE2=Pirates Of The Mississippi - Jingle Bells
TTITLE3=Glenn Campbell - Silent Night
TTITLE4=Charlie Daniels - Christmas in Dixie
TTITLE5=Lacy J. Dalton - Away in a Manger
TTITLE6=Kenny Rogers - O Holy Night
TTITLE7=John Berry - O Come Emmanual
TTITLE8=Billy Dean - I Still Believe in Christmas
TTITLE9=Suzy Bogguss - The First Noel
EXTD=
EXTT0=
EXTT1=
EXTT2=
EXTT3=
EXTT4=
EXTT5=
EXTT6=
EXTT7=
EXTT8=
EXTT9=
PLAYORDER=
